<?xml version="1.0" encoding="UTF-8" standalone="no"?><svg xmlns="http://www.w3.org/2000/svg" xmlns:xlink="http://www.w3.org/1999/xlink" contentStyleType="text/css" height="782px" preserveAspectRatio="none" style="width:1004px;height:782px;background:#FFFFFF;" version="1.1" viewBox="0 0 1004 782" width="1004px" zoomAndPan="magnify"><defs/><g><!--MD5=[8e1ca234e67c2d8bfc0f296ca0077fd7]
cluster Container--><g id="cluster_Container"><rect height="393" rx="12.5" ry="12.5" style="stroke:#181818;stroke-width:0.5;fill:none;" width="990" x="7" y="383"/><rect height="364.7031" rx="12.5" ry="12.5" style="stroke:#00000000;stroke-width:1.0;fill:none;" width="988" x="8" y="410.2969"/><line style="stroke:#181818;stroke-width:0.5;fill:none;" x1="7" x2="997" y1="409.2969" y2="409.2969"/><text fill="#000000" font-family="sans-serif" font-size="14" font-weight="bold" lengthAdjust="spacing" textLength="139" x="432.5" y="399.9951">Docker Container</text></g><g id="Container.Entrypoint"><rect fill="#F1F1F1" height="50" rx="12.5" ry="12.5" style="stroke:#181818;stroke-width:0.5;" width="130" x="485" y="418"/><line style="stroke:#181818;stroke-width:0.5;" x1="485" x2="615" y1="444.2969" y2="444.2969"/><text fill="#000000" font-family="sans-serif" font-size="14" font-weight="bold" lengthAdjust="spacing" textLength="110" x="495" y="435.9951">entrypoint.sh</text></g><g id="Container.DockerPrestartSh"><rect fill="#F1F1F1" height="50" rx="12.5" ry="12.5" style="stroke:#181818;stroke-width:0.5;" width="173" x="519.5" y="546.5"/><line style="stroke:#181818;stroke-width:0.5;" x1="519.5" x2="692.5" y1="572.7969" y2="572.7969"/><text fill="#000000" font-family="sans-serif" font-size="14" font-weight="bold" lengthAdjust="spacing" textLength="153" x="529.5" y="564.4951">docker_prestart.sh</text></g><g id="Container.DominoInstallDataCopySh"><rect fill="#F1F1F1" height="50" rx="12.5" ry="12.5" style="stroke:#181818;stroke-width:0.5;" width="253" x="727.5" y="546.5"/><line style="stroke:#181818;stroke-width:0.5;" x1="727.5" x2="980.5" y1="572.7969" y2="572.7969"/><text fill="#000000" font-family="sans-serif" font-size="14" font-weight="bold" lengthAdjust="spacing" textLength="233" x="737.5" y="564.4951">domino_install_data_copy.sh</text></g><g id="Container.ContainerBash"><rect fill="#F1F1F1" height="50" rx="12.5" ry="12.5" style="stroke:#181818;stroke-width:0.5;" width="60" x="360" y="418"/><line style="stroke:#181818;stroke-width:0.5;" x1="360" x2="420" y1="444.2969" y2="444.2969"/><text fill="#000000" font-family="sans-serif" font-size="14" font-weight="bold" lengthAdjust="spacing" textLength="40" x="370" y="435.9951">Bash</text></g><g id="Container.RcDominoScript"><rect fill="#F1F1F1" height="52.5938" rx="12.5" ry="12.5" style="stroke:#181818;stroke-width:0.5;" width="230" x="254" y="545"/><line style="stroke:#181818;stroke-width:0.5;" x1="254" x2="484" y1="571.2969" y2="571.2969"/><text fill="#000000" font-family="sans-serif" font-size="14" font-weight="bold" lengthAdjust="spacing" textLength="138" x="300" y="562.9951">rc_domino_script</text><text fill="#000000" font-family="sans-serif" font-size="14" lengthAdjust="spacing" textLength="210" x="259" y="589.292">dir: /opt/nashcom/startscript</text></g><g id="Container.RcDominoConfig"><rect fill="#F1F1F1" height="52.5938" rx="12.5" ry="12.5" style="stroke:#181818;stroke-width:0.5;" width="161" x="23.5" y="545"/><line style="stroke:#181818;stroke-width:0.5;" x1="23.5" x2="184.5" y1="571.2969" y2="571.2969"/><text fill="#000000" font-family="sans-serif" font-size="14" font-weight="bold" lengthAdjust="spacing" textLength="141" x="33.5" y="562.9951">rc_domino_config</text><text fill="#000000" font-family="sans-serif" font-size="14" lengthAdjust="spacing" textLength="129" x="28.5" y="589.292">dir: /etc/sysconfig</text></g><g id="Container.DominoServer"><rect fill="#F1F1F1" height="85.1875" rx="12.5" ry="12.5" style="stroke:#181818;stroke-width:0.5;" width="137" x="300.5" y="675"/><line style="stroke:#181818;stroke-width:0.5;" x1="300.5" x2="437.5" y1="701.2969" y2="701.2969"/><text fill="#000000" font-family="sans-serif" font-size="14" font-weight="bold" lengthAdjust="spacing" textLength="117" x="310.5" y="692.9951">Domino Server</text><text fill="#000000" font-family="sans-serif" font-size="14" lengthAdjust="spacing" textLength="116" x="305.5" y="719.292">/local/notesdata</text><text fill="#000000" font-family="sans-serif" font-size="14" lengthAdjust="spacing" textLength="63" x="305.5" y="735.5889">notes.ini</text><text fill="#000000" font-family="sans-serif" font-size="14" lengthAdjust="spacing" textLength="42" x="305.5" y="751.8857">NSF...</text></g><g id="Admin"><rect fill="#F1F1F1" height="52.5938" rx="12.5" ry="12.5" style="stroke:#181818;stroke-width:0.5;" width="71" x="444.5" y="7"/><line style="stroke:#181818;stroke-width:0.5;" x1="444.5" x2="515.5" y1="33.2969" y2="33.2969"/><text fill="#000000" font-family="sans-serif" font-size="14" font-weight="bold" lengthAdjust="spacing" textLength="51" x="454.5" y="24.9951">Admin</text><text fill="#000000" font-family="sans-serif" font-size="14" lengthAdjust="spacing" textLength="34" x="449.5" y="51.292">bash</text></g><g id="DominoContainerScript"><rect fill="#F1F1F1" height="52.5938" rx="12.5" ry="12.5" style="stroke:#181818;stroke-width:0.5;" width="237" x="361.5" y="137"/><line style="stroke:#181818;stroke-width:0.5;" x1="361.5" x2="598.5" y1="163.2969" y2="163.2969"/><text fill="#000000" font-family="sans-serif" font-size="14" font-weight="bold" lengthAdjust="spacing" textLength="145" x="407.5" y="154.9951">domino_container</text><text fill="#000000" font-family="sans-serif" font-size="14" lengthAdjust="spacing" textLength="217" x="366.5" y="181.292">dir: /opt/nashcom/start_script</text></g><g id="DominoContainerCfg"><rect fill="#F1F1F1" height="52.5938" rx="12.5" ry="12.5" style="stroke:#181818;stroke-width:0.5;" width="209" x="82.5" y="137"/><line style="stroke:#181818;stroke-width:0.5;" x1="82.5" x2="291.5" y1="163.2969" y2="163.2969"/><text fill="#000000" font-family="sans-serif" font-size="14" font-weight="bold" lengthAdjust="spacing" textLength="189" x="92.5" y="154.9951">domino_container (cfg)</text><text fill="#000000" font-family="sans-serif" font-size="14" lengthAdjust="spacing" textLength="106" x="87.5" y="181.292">/etc/sysconfig/</text></g><g id="DockerDaemon"><rect fill="#F1F1F1" height="52.5938" rx="12.5" ry="12.5" style="stroke:#181818;stroke-width:0.5;" width="148" x="406" y="267"/><line style="stroke:#181818;stroke-width:0.5;" x1="406" x2="554" y1="293.2969" y2="293.2969"/><text fill="#000000" font-family="sans-serif" font-size="14" font-weight="bold" lengthAdjust="spacing" textLength="125" x="417.5" y="284.9951">Docker Daemon</text><text fill="#000000" font-family="sans-serif" font-size="14" lengthAdjust="spacing" textLength="128" x="411" y="311.292">( or Podman etc. )</text></g><!--MD5=[d3ffd8caf4fca9f73e345bae3262a61c]
link Admin to DominoContainerScript--><g id="link_Admin_DominoContainerScript"><path d="M480,60.095 C480,80.763 480,109.91 480,131.826 " fill="none" id="Admin-to-DominoContainerScript" style="stroke:#181818;stroke-width:1.0;"/><polygon fill="#181818" points="480,136.949,484,127.949,480,131.949,476,127.949,480,136.949" style="stroke:#181818;stroke-width:1.0;"/><text fill="#000000" font-family="sans-serif" font-size="13" lengthAdjust="spacing" textLength="42" x="481" y="103.0669">Invoke</text></g><!--MD5=[eacacc89f38f708a078b60ec3ecc4719]
link DominoContainerScript to DockerDaemon--><g id="link_DominoContainerScript_DockerDaemon"><path d="M480,190.095 C480,210.763 480,239.91 480,261.826 " fill="none" id="DominoContainerScript-to-DockerDaemon" style="stroke:#181818;stroke-width:1.0;"/><polygon fill="#181818" points="480,266.949,484,257.949,480,261.949,476,257.949,480,266.949" style="stroke:#181818;stroke-width:1.0;"/><text fill="#000000" font-family="sans-serif" font-size="13" lengthAdjust="spacing" textLength="98" x="481" y="233.0669">Start/Stop/Cmd</text></g><!--MD5=[392dcc17bf91fa2842d8621146672c7f]
link DominoContainerCfg to DominoContainerScript--><g id="link_DominoContainerCfg_DominoContainerScript"><path d="M291.539,163.5 C312.459,163.5 334.627,163.5 356.127,163.5 " fill="none" id="DominoContainerCfg-to-DominoContainerScript" style="stroke:#181818;stroke-width:1.0;"/><polygon fill="#181818" points="361.285,163.5,352.285,159.5,356.285,163.5,352.285,167.5,361.285,163.5" style="stroke:#181818;stroke-width:1.0;"/><text fill="#000000" font-family="sans-serif" font-size="13" lengthAdjust="spacing" textLength="33" x="310" y="156.5669">Read</text></g><!--MD5=[544cf2f70d402a3431f90988b12b4e48]
link DockerDaemon to Entrypoint--><g id="link_DockerDaemon_Entrypoint"><path d="M492.193,320.193 C504.487,346.097 523.429,386.012 536.25,413.027 " fill="none" id="DockerDaemon-to-Entrypoint" style="stroke:#181818;stroke-width:1.0;"/><polygon fill="#181818" points="538.411,417.581,538.165,407.7352,536.2668,413.0641,530.938,411.1659,538.411,417.581" style="stroke:#181818;stroke-width:1.0;"/><text fill="#000000" font-family="sans-serif" font-size="13" lengthAdjust="spacing" textLength="64" x="513" y="363.0669">Start/Stop</text></g><!--MD5=[3b3cef0d3fda694b3ba1cfbd26fdbf04]
link DockerDaemon to ContainerBash--><g id="link_DockerDaemon_ContainerBash"><path d="M464.323,320.193 C448.517,346.097 424.162,386.012 407.678,413.027 " fill="none" id="DockerDaemon-to-ContainerBash" style="stroke:#181818;stroke-width:1.0;"/><polygon fill="#181818" points="404.9,417.581,413.0021,411.9813,407.5041,413.3127,406.1728,407.8147,404.9,417.581" style="stroke:#181818;stroke-width:1.0;"/><text fill="#000000" font-family="sans-serif" font-size="13" lengthAdjust="spacing" textLength="31" x="446" y="363.0669">Exec</text></g><!--MD5=[b54a4900ef5e5a95d374751132a8a79f]
link Entrypoint to RcDominoScript--><g id="link_Entrypoint_RcDominoScript"><path d="M515.529,468.091 C485.393,489.153 441.592,519.765 409.733,542.032 " fill="none" id="Entrypoint-to-RcDominoScript" style="stroke:#181818;stroke-width:1.0;"/><polygon fill="#181818" points="405.517,544.979,415.1854,543.1022,409.6154,542.1149,410.6028,536.5448,405.517,544.979" style="stroke:#181818;stroke-width:1.0;"/><text fill="#000000" font-family="sans-serif" font-size="13" lengthAdjust="spacing" textLength="64" x="471" y="511.0669">Start/Stop</text></g><!--MD5=[aac4f6653ce94cc285f006c325fd6f24]
link Entrypoint to DockerPrestartSh--><g id="link_Entrypoint_DockerPrestartSh"><path d="M560.665,468.091 C569.968,489.106 583.48,519.628 593.331,541.881 " fill="none" id="Entrypoint-to-DockerPrestartSh" style="stroke:#181818;stroke-width:1.0;"/><polygon fill="#181818" points="595.375,546.498,595.3896,536.6492,593.3511,541.9259,588.0743,539.8874,595.375,546.498" style="stroke:#181818;stroke-width:1.0;"/><text fill="#000000" font-family="sans-serif" font-size="13" lengthAdjust="spacing" textLength="37" x="582" y="511.0669">Setup</text></g><!--MD5=[b8d084f5cb4023269ccb1a094b4f5cb8]
link Entrypoint to DominoInstallDataCopySh--><g id="link_Entrypoint_DominoInstallDataCopySh"><path d="M607.896,468.091 C660.404,489.941 737.614,522.069 791.505,544.495 " fill="none" id="Entrypoint-to-DominoInstallDataCopySh" style="stroke:#181818;stroke-width:1.0;"/><polygon fill="#181818" points="796.32,546.498,789.5484,539.3464,791.704,544.5764,786.4739,546.732,796.32,546.498" style="stroke:#181818;stroke-width:1.0;"/><text fill="#000000" font-family="sans-serif" font-size="13" lengthAdjust="spacing" textLength="122" x="721" y="511.0669">Setup/Update(Run)</text></g><!--MD5=[9d116cc96e873ef886efe5e300fac765]
link RcDominoConfig to RcDominoScript--><g id="link_RcDominoConfig_RcDominoScript"><path d="M184.588,571.5 C204.747,571.5 226.811,571.5 248.446,571.5 " fill="none" id="RcDominoConfig-to-RcDominoScript" style="stroke:#181818;stroke-width:1.0;"/><polygon fill="#181818" points="253.64,571.5,244.64,567.5,248.64,571.5,244.64,575.5,253.64,571.5" style="stroke:#181818;stroke-width:1.0;"/><text fill="#000000" font-family="sans-serif" font-size="13" lengthAdjust="spacing" textLength="33" x="202.75" y="564.5669">Read</text></g><!--MD5=[78c1a0c4334f445ab9a4a62ce7d683ad]
link RcDominoScript to DominoServer--><g id="link_RcDominoScript_DominoServer"><path d="M369,598.244 C369,618.107 369,646.116 369,669.889 " fill="none" id="RcDominoScript-to-DominoServer" style="stroke:#181818;stroke-width:1.0;"/><polygon fill="#181818" points="369,674.893,373,665.893,369,669.893,365,665.893,369,674.893" style="stroke:#181818;stroke-width:1.0;"/><text fill="#000000" font-family="sans-serif" font-size="13" lengthAdjust="spacing" textLength="86" x="370" y="641.0669">Start/Console</text></g><!--MD5=[0faf20b60ebb4187dd6efaec4bcc7452]
link ContainerBash to RcDominoScript--><g id="link_ContainerBash_RcDominoScript"><path d="M386.001,468.091 C382.629,488.399 377.784,517.586 374.128,539.609 " fill="none" id="ContainerBash-to-RcDominoScript" style="stroke:#181818;stroke-width:1.0;"/><polygon fill="#181818" points="373.273,544.759,378.6928,536.5355,374.0918,539.8265,370.8007,535.2255,373.273,544.759" style="stroke:#181818;stroke-width:1.0;"/><text fill="#000000" font-family="sans-serif" font-size="13" lengthAdjust="spacing" textLength="42" x="381" y="511.0669">Invoke</text></g><!--MD5=[9924de62042f4deda888be6302966b08]
@startuml
state "**Admin**" as Admin
Admin : bash

state "**domino_container**" as DominoContainerScript

DominoContainerScript: dir: /opt/nashcom/start_script

state "**domino_container (cfg)**" as DominoContainerCfg
DominoContainerCfg: /etc/sysconfig/

state "**Docker Daemon**" as DockerDaemon
DockerDaemon : ( or Podman etc. )

state "**Docker Container**" as Container {

  state "**entrypoint.sh**" as Entrypoint

  state "**docker_prestart.sh**" as DockerPrestartSh
  state "**domino_install_data_copy.sh**" as DominoInstallDataCopySh

  state "**Bash**" as ContainerBash

  state "**rc_domino_script**" as RcDominoScript
  RcDominoScript : dir: /opt/nashcom/startscript

  state "**rc_domino_config**" as RcDominoConfig
  RcDominoConfig : dir: /etc/sysconfig

  state "**Domino Server**" as DominoServer
  DominoServer : /local/notesdata\nnotes.ini\nNSF...

}

Admin - -> DominoContainerScript : Invoke
DominoContainerScript - -> DockerDaemon : Start/Stop/Cmd
DominoContainerCfg -> DominoContainerScript : Read
DockerDaemon - -> Entrypoint : Start/Stop
DockerDaemon - -> ContainerBash : Exec

Entrypoint - -> RcDominoScript : Start/Stop
Entrypoint - -> DockerPrestartSh : Setup
Entrypoint - -> DominoInstallDataCopySh : Setup/Update(Run)
RcDominoConfig -> RcDominoScript : Read
RcDominoScript - -> DominoServer : Start/Console
ContainerBash - -> RcDominoScript : Invoke
@enduml

PlantUML version 1.2022.2beta9(Unknown compile time)
(GPL source distribution)
Java Runtime: Java(TM) SE Runtime Environment
JVM: Java HotSpot(TM) 64-Bit Server VM
Default Encoding: UTF-8
Language: en
Country: US
--></g></svg>