<svg xmlns="http://www.w3.org/2000/svg" xmlns:xlink="http://www.w3.org/1999/xlink" viewBox="0 0 2806.3 544.25"><defs><style>.cls-1{fill:#1c262e;}.cls-2{fill:#93a2ad;}.cls-3{fill:url(#linear-gradient);}</style><linearGradient id="linear-gradient" x1="-814.79" y1="588.66" x2="-665.12" y2="588.66" gradientTransform="matrix(1.06, 0.13, -0.11, 0.99, 980.84, -273.89)" gradientUnits="userSpaceOnUse"><stop offset="0" stop-color="#ffdf41"/><stop offset="0.26" stop-color="#fedc3d"/><stop offset="0.5" stop-color="#fbd232"/><stop offset="0.74" stop-color="#f6c11f"/><stop offset="0.97" stop-color="#efaa04"/><stop offset="1" stop-color="#eea600"/></linearGradient></defs><g id="Layer_3" data-name="Layer 3"><path class="cls-1" d="M677.82,158h42.29V258H834.93V158h42.28V398.63H834.93V297.22H720.11V398.63H677.82Z"/><path class="cls-1" d="M1045.79,402.76A122,122,0,0,1,997,393.13a119.73,119.73,0,0,1-38.68-26.3,121.16,121.16,0,0,1-25.61-39.36A126.69,126.69,0,0,1,923.41,279v-.69a127.64,127.64,0,0,1,9.11-48.3,121.83,121.83,0,0,1,25.61-39.53,120.38,120.38,0,0,1,39.19-26.81q22.7-9.81,50.19-9.8a153,153,0,0,1,30.08,2.73,122.84,122.84,0,0,1,24.93,7.66,117.84,117.84,0,0,1,21,11.76,164.65,164.65,0,0,1,18.22,15l-27.16,31.27a135.75,135.75,0,0,0-30.6-21.66q-16.15-8.25-36.78-8.25a75.17,75.17,0,0,0-31.8,6.72,77,77,0,0,0-25.1,18.26,86,86,0,0,0-16.5,27,90.55,90.55,0,0,0-6,33.06v.69a94.2,94.2,0,0,0,5.84,33.24,81.9,81.9,0,0,0,16.5,27.22,78.86,78.86,0,0,0,25.27,18.25,75.17,75.17,0,0,0,31.8,6.72q22,0,37.81-8.25a144.11,144.11,0,0,0,31.29-22.69l27.15,27.5a153.74,153.74,0,0,1-19.42,17.7,127.9,127.9,0,0,1-21.83,13.41,110.48,110.48,0,0,1-25.61,8.6A150.65,150.65,0,0,1,1045.79,402.76Z"/><path class="cls-1" d="M1180.48,158h42.28V360.13h126.51v38.5H1180.48Z"/><path class="cls-1" d="M1496.4,158h89.72q28.19,0,51.74,9.11a122.33,122.33,0,0,1,40.56,25.27,112.45,112.45,0,0,1,26.3,38,119.49,119.49,0,0,1,9.28,47.27v.68a120.68,120.68,0,0,1-9.28,47.44,111.87,111.87,0,0,1-26.3,38.16,124.36,124.36,0,0,1-40.56,25.44q-23.55,9.28-51.74,9.28H1496.4Zm42.28,38.51V360.13h47.44a94,94,0,0,0,34.38-6,75,75,0,0,0,26.3-16.84,76.18,76.18,0,0,0,16.84-25.78,86.27,86.27,0,0,0,6-32.49v-.69a87.6,87.6,0,0,0-6-32.66,75.84,75.84,0,0,0-16.84-26,77.32,77.32,0,0,0-26.3-17,91.93,91.93,0,0,0-34.38-6.18Z"/><path class="cls-1" d="M1830.1,402.76a98.58,98.58,0,0,1-38.33-7.39,95.25,95.25,0,0,1-30.6-20.11,91.11,91.11,0,0,1-20.11-29.91,93.18,93.18,0,0,1-7.22-36.44v-.69a92.07,92.07,0,0,1,7.39-36.78,94.72,94.72,0,0,1,50.88-50.54,97.43,97.43,0,0,1,38.67-7.56,99.58,99.58,0,0,1,38.68,7.39,93,93,0,0,1,50.7,50.19,92.66,92.66,0,0,1,7.22,36.61v.69a91.21,91.21,0,0,1-7.39,36.44,94.29,94.29,0,0,1-51,50.54A98.9,98.9,0,0,1,1830.1,402.76Zm.68-36.44a53.64,53.64,0,0,0,40.22-17,52.33,52.33,0,0,0,11-18.22,65.11,65.11,0,0,0,3.78-22.17v-.69a62.34,62.34,0,0,0-4.13-22.69A57.12,57.12,0,0,0,1870.15,267a55.28,55.28,0,0,0-17.54-12.55,56.95,56.95,0,0,0-45,0,54.3,54.3,0,0,0-17.36,12.38,52.14,52.14,0,0,0-11,18.39,66.06,66.06,0,0,0-3.78,22.34v.69a60.93,60.93,0,0,0,4.12,22.52,57.37,57.37,0,0,0,11.52,18.39,55.17,55.17,0,0,0,17.53,12.55A52.69,52.69,0,0,0,1830.78,366.32Z"/><path class="cls-1" d="M1952.61,217.12h41.6v27.5a118.08,118.08,0,0,1,9.63-11.68,67,67,0,0,1,11.86-10,57.26,57.26,0,0,1,15.12-7.05,63.84,63.84,0,0,1,18.74-2.58q19.59,0,33.34,8.77a57.59,57.59,0,0,1,21,23.2,90.05,90.05,0,0,1,25.79-23.2q14.78-8.78,35.41-8.77,29.89,0,46.75,18t16.84,51.39V398.63h-41.59V295.5q0-21.66-9.63-33t-27.16-11.35q-17.19,0-28,11.52t-10.83,33.52V398.63h-41.6V295.16q0-21.32-9.62-32.66t-27.16-11.35q-17.54,0-28.19,12t-10.66,33V398.63h-41.6Z"/><path class="cls-1" d="M2262,149.74h44.69v39.54H2262Zm1.72,67.38h41.59V398.63h-41.59Z"/><path class="cls-1" d="M2341.69,217.12h41.6V245a133.58,133.58,0,0,1,9.8-12,56.22,56.22,0,0,1,12.37-10.15,67.73,67.73,0,0,1,15.47-6.87,65.15,65.15,0,0,1,19.08-2.58q30.94,0,47.79,18.91t16.84,50.53V398.63H2463V295.5q0-21.31-10.14-32.83t-28.7-11.52q-18.22,0-29.57,11.87t-11.34,33.17V398.63h-41.6Z"/><path class="cls-1" d="M2624.55,402.76a98.62,98.62,0,0,1-38.33-7.39,95.25,95.25,0,0,1-30.6-20.11,91.11,91.11,0,0,1-20.11-29.91,93.18,93.18,0,0,1-7.22-36.44v-.69a92.07,92.07,0,0,1,7.39-36.78,94.72,94.72,0,0,1,50.88-50.54,97.43,97.43,0,0,1,38.67-7.56,99.58,99.58,0,0,1,38.68,7.39,93,93,0,0,1,50.7,50.19,92.66,92.66,0,0,1,7.22,36.61v.69a91.21,91.21,0,0,1-7.39,36.44,94.29,94.29,0,0,1-51.05,50.54A98.9,98.9,0,0,1,2624.55,402.76Zm.68-36.44a53.69,53.69,0,0,0,40.23-17,52.46,52.46,0,0,0,11-18.22,64.87,64.87,0,0,0,3.78-22.17v-.69a62.34,62.34,0,0,0-4.13-22.69A57.12,57.12,0,0,0,2664.6,267a55.17,55.17,0,0,0-17.54-12.55,56.95,56.95,0,0,0-45,0,54.3,54.3,0,0,0-17.36,12.38,52.14,52.14,0,0,0-11,18.39,66.06,66.06,0,0,0-3.78,22.34v.69a60.93,60.93,0,0,0,4.12,22.52,57.37,57.37,0,0,0,11.52,18.39,55.17,55.17,0,0,0,17.53,12.55A52.69,52.69,0,0,0,2625.23,366.32Z"/><polygon class="cls-2" points="364.8 189.96 275.11 388.36 164.3 389.04 302.16 82.81 364.8 189.96"/><polygon class="cls-2" points="545.18 208.45 446.11 428.56 290.36 441.58 457.92 69.57 545.18 208.45"/><polygon class="cls-3" points="218.92 174.06 145.14 338.07 41.81 328.5 148.88 90.55 218.92 174.06"/></g></svg>