<svg xmlns="http://www.w3.org/2000/svg" xmlns:xlink="http://www.w3.org/1999/xlink" viewBox="0 0 383.84 65.56"><defs><style>.cls-1{fill:#4b4b4b;}.cls-2{fill:#1c1c1c;}.cls-3{fill:url(#New_Gradient_Swatch_12);}.cls-4{fill:#8d8d8d;}.cls-5{fill:url(#linear-gradient);}</style><linearGradient id="New_Gradient_Swatch_12" y1="32.78" x2="65.56" y2="32.78" gradientUnits="userSpaceOnUse"><stop offset="0" stop-color="#bed630"/><stop offset="0.01" stop-color="#bfd52f"/><stop offset="0.25" stop-color="#dac823"/><stop offset="0.49" stop-color="#edbf1a"/><stop offset="0.74" stop-color="#f8ba15"/><stop offset="1" stop-color="#fcb813"/></linearGradient><linearGradient id="linear-gradient" x1="-453.72" y1="-119.3" x2="-439.5" y2="-119.3" gradientTransform="matrix(1.06, 0.13, -0.11, 0.99, 478.24, 205.62)" gradientUnits="userSpaceOnUse"><stop offset="0" stop-color="#bed630"/><stop offset="1" stop-color="#fcb813"/></linearGradient></defs><title>HCL_Domino</title><g id="Layer_2" data-name="Layer 2"><g id="Layer_2-2" data-name="Layer 2"><path class="cls-1" d="M93.54,15.67h6.07V30h16.47V15.67h6.07V50.19h-6.07V35.64H99.61V50.19H93.54Z"/><path class="cls-1" d="M127.6,33v-.1a17.46,17.46,0,0,1,17.76-17.85,18,18,0,0,1,13.56,5.38L155,24.94c-2.81-2.57-5.72-4.24-9.72-4.24C138.8,20.7,134,26.07,134,32.83v.1c0,6.76,4.78,12.23,11.39,12.23,4.24,0,7-1.68,9.91-4.44l3.9,3.95c-3.6,3.75-7.55,6.12-14,6.12C135,50.78,127.6,42.94,127.6,33Z"/><path class="cls-1" d="M163.31,15.67h6.07v29h18.15v5.52H163.31Z"/><path class="cls-1" d="M206.22,15.67H219.1c10.85,0,18.35,7.45,18.35,17.16v.1c0,9.72-7.5,17.26-18.35,17.26H206.22Zm6.07,5.52V44.67h6.81c7.25,0,12-4.88,12-11.64v-.1c0-6.76-4.73-11.74-12-11.74Z"/><path class="cls-1" d="M240.52,37.32v-.1a13.89,13.89,0,0,1,27.77-.1v.1a13.62,13.62,0,0,1-14,13.56A13.47,13.47,0,0,1,240.52,37.32Zm21.8,0v-.1c0-4.59-3.3-8.38-8-8.38s-7.84,3.75-7.84,8.29v.1a8,8,0,0,0,7.94,8.34C259.27,45.56,262.32,41.81,262.32,37.32Z"/><path class="cls-1" d="M272.26,24.15h6V28.1c1.68-2.32,3.95-4.49,7.94-4.49A8.26,8.26,0,0,1,294,28.19a10.48,10.48,0,0,1,8.78-4.59c5.67,0,9.12,3.6,9.12,10V50.19h-6V35.4c0-4.14-1.92-6.36-5.28-6.36s-5.57,2.27-5.57,6.46v14.7h-6V35.35c0-4-2-6.31-5.28-6.31s-5.57,2.47-5.57,6.46v14.7h-6Z"/><path class="cls-1" d="M317.16,14.48h6.41v5.67h-6.41Zm.2,9.67h6v26h-6Z"/><path class="cls-1" d="M328.92,24.15h6v4a9.44,9.44,0,0,1,8.14-4.54c5.87,0,9.27,3.95,9.27,10V50.19h-6V35.4c0-4-2-6.36-5.57-6.36s-5.87,2.42-5.87,6.46v14.7h-6Z"/><path class="cls-1" d="M356.07,37.32v-.1a13.89,13.89,0,0,1,27.77-.1v.1a13.62,13.62,0,0,1-14,13.56A13.47,13.47,0,0,1,356.07,37.32Zm21.8,0v-.1c0-4.59-3.3-8.38-8-8.38S362,32.58,362,37.12v.1A8,8,0,0,0,370,45.56C374.81,45.56,377.87,41.81,377.87,37.32Z"/><rect class="cls-2" x="2.49" y="2.49" width="60.58" height="60.58"/><path class="cls-3" d="M63.07,2.49V63.07H2.49V2.49H63.07m0-2.49H2.49A2.49,2.49,0,0,0,0,2.49V63.07a2.49,2.49,0,0,0,2.49,2.49H63.07a2.49,2.49,0,0,0,2.49-2.49V2.49A2.49,2.49,0,0,0,63.07,0Z"/><polygon class="cls-4" points="39.05 25.91 30.53 44.76 20 44.82 33.1 15.74 39.05 25.91"/><polygon class="cls-4" points="56.18 27.67 46.77 48.58 31.98 49.81 47.89 14.48 56.18 27.67"/><polygon class="cls-5" points="25.19 24.4 18.18 39.98 8.37 39.07 18.54 16.47 25.19 24.4"/></g></g></svg>