<?xml version="1.0" encoding="UTF-8" standalone="no"?><svg xmlns="http://www.w3.org/2000/svg" xmlns:xlink="http://www.w3.org/1999/xlink" contentStyleType="text/css" height="331px" preserveAspectRatio="none" style="width:1478px;height:331px;background:#FFFFFF;" version="1.1" viewBox="0 0 1478 331" width="1478px" zoomAndPan="magnify"><defs/><g><line style="stroke:#181818;stroke-width:1.5;" x1="73.5" x2="73.5" y1="63.9688" y2="83.9688"/><rect fill="#F1F1F1" height="47.9375" style="stroke:#181818;stroke-width:1.5;" width="127" x="10" y="83.9688"/><path d="M25,96.9375 C22.79,96.9375 21,98.7275 21,100.9375 C21,103.1475 22.79,104.9375 25,104.9375 C27.21,104.9375 29,103.1475 29,100.9375 C29,98.7275 27.21,96.9375 25,96.9375 M25,97.9375 C25.33,97.9375 25.64,98.0275 25.94,98.1275 C25.73,98.3275 25.49,98.5075 25.53,98.6875 C25.57,98.8675 26.22,98.8175 26.22,99.1875 C26.22,99.4575 25.8,99.5375 26.09,99.8475 C26.44,100.1975 25.45,100.8275 25.43,101.2875 C25.4,102.1175 26.27,102.2575 26.96,102.2575 C27.38,102.2575 27.49,102.4575 27.46,102.6975 C26.92,103.4675 26,103.9475 24.99,103.9475 C24.61,103.9475 24.26,103.8575 23.93,103.7275 C24.15,103.2875 23.65,102.4175 23.18,102.1375 C22.95,101.9075 22.46,101.9975 22.18,101.8875 C22.09,101.6175 22,101.3475 21.99,101.0475 C22.02,100.9975 22.07,100.9575 22.15,100.9575 C22.34,100.9575 22.6,101.3375 22.74,101.2975 C22.92,101.2575 22,99.9875 22.43,99.7375 C22.63,99.6175 23.03,100.1275 22.9,99.5775 C22.78,99.0675 23.26,99.2975 23.56,99.1675 C23.82,99.0575 24.01,98.7575 23.69,98.5775 C23.63,98.5475 23.56,98.4775 23.47,98.3875 C23.92,98.1175 24.44,97.9475 25,97.9475 M27.31,99.0275 C27.49,99.2475 27.63,99.4875 27.75,99.7475 C27.75,99.7575 27.75,99.7675 27.75,99.7775 C27.71,99.8475 27.64,99.8875 27.53,99.9975 C27.25,100.2775 27.21,99.7875 27.09,99.6875 C26.96,99.5675 26.49,99.7075 26.43,99.5575 C26.36,99.3775 26.93,99.1375 27.31,99.0275 " fill="#000000" style="stroke:;stroke-width:0.0;stroke-dasharray:;"/><text fill="#000000" font-family="sans-serif" font-size="12" lengthAdjust="spacing" textLength="4" x="30" y="105.1074"> </text><text fill="#000000" font-family="sans-serif" font-size="12" font-weight="bold" lengthAdjust="spacing" textLength="34" x="34" y="105.1074">Root</text><text fill="#000000" font-family="sans-serif" font-size="12" lengthAdjust="spacing" textLength="55" x="72" y="105.1074">directory</text><text fill="#000000" font-family="sans-serif" font-size="12" lengthAdjust="spacing" textLength="107" x="20" y="119.0762">Main entry scripts</text><line style="stroke:#181818;stroke-width:1.5;" x1="73.5" x2="83.5" y1="170.875" y2="170.875"/><rect fill="#F1F1F1" height="47.9375" style="stroke:#181818;stroke-width:1.5;" width="119" x="83.5" y="146.9063"/><text fill="#000000" font-family="sans-serif" font-size="12" font-weight="bold" lengthAdjust="spacing" textLength="56" x="93.5" y="168.0449">build.sh</text><text fill="#000000" font-family="sans-serif" font-size="12" lengthAdjust="spacing" textLength="99" x="93.5" y="182.0137">main build script</text><line style="stroke:#181818;stroke-width:1.5;" x1="73.5" x2="83.5" y1="233.8125" y2="233.8125"/><rect fill="#F1F1F1" height="47.9375" style="stroke:#181818;stroke-width:1.5;" width="202" x="83.5" y="209.8438"/><text fill="#000000" font-family="sans-serif" font-size="12" font-weight="bold" lengthAdjust="spacing" textLength="63" x="93.5" y="230.9824">build.cfg</text><text fill="#000000" font-family="sans-serif" font-size="12" lengthAdjust="spacing" textLength="182" x="93.5" y="244.9512">template for build configration</text><line style="stroke:#181818;stroke-width:1.5;" x1="73.5" x2="73.5" y1="131.9063" y2="233.8125"/><line style="stroke:#181818;stroke-width:1.5;" x1="489.5" x2="489.5" y1="63.9688" y2="83.9688"/><rect fill="#F1F1F1" height="47.9375" style="stroke:#181818;stroke-width:1.5;" width="228" x="375.5" y="83.9688"/><text fill="#000000" font-family="sans-serif" font-size="12" font-weight="bold" lengthAdjust="spacing" textLength="82" x="385.5" y="105.1074">dockerfiles</text><text fill="#000000" font-family="sans-serif" font-size="12" lengthAdjust="spacing" textLength="208" x="385.5" y="119.0762">indiivdual docker files per product</text><line style="stroke:#181818;stroke-width:1.5;" x1="479.5" x2="489.5" y1="170.875" y2="170.875"/><rect fill="#F1F1F1" height="47.9375" style="stroke:#181818;stroke-width:1.5;" width="174" x="305.5" y="146.9063"/><text fill="#000000" font-family="sans-serif" font-size="12" font-weight="bold" lengthAdjust="spacing" textLength="136" x="315.5" y="168.0449">install_dir_common</text><text fill="#000000" font-family="sans-serif" font-size="12" lengthAdjust="spacing" textLength="154" x="315.5" y="182.0137">Code used by all flavours</text><line style="stroke:#181818;stroke-width:1.5;" x1="489.5" x2="499.5" y1="170.875" y2="170.875"/><rect fill="#F1F1F1" height="47.9375" style="stroke:#181818;stroke-width:1.5;" width="149" x="499.5" y="146.9063"/><text fill="#000000" font-family="sans-serif" font-size="12" font-weight="bold" lengthAdjust="spacing" textLength="129" x="509.5" y="168.0449">install_dir_domino</text><text fill="#000000" font-family="sans-serif" font-size="12" lengthAdjust="spacing" textLength="46" x="509.5" y="182.0137">Domino</text><text fill="#000000" font-family="sans-serif" font-size="12" font-weight="bold" lengthAdjust="spacing" textLength="35" x="559.5" y="182.0137">Base</text><text fill="#000000" font-family="sans-serif" font-size="12" lengthAdjust="spacing" textLength="37" x="598.5" y="182.0137">image</text><line style="stroke:#181818;stroke-width:1.5;" x1="489.5" x2="499.5" y1="233.8125" y2="233.8125"/><rect fill="#F1F1F1" height="47.9375" style="stroke:#181818;stroke-width:1.5;" width="162" x="499.5" y="209.8438"/><text fill="#000000" font-family="sans-serif" font-size="12" font-weight="bold" lengthAdjust="spacing" textLength="137" x="509.5" y="230.9824">install_dir_traveler</text><text fill="#000000" font-family="sans-serif" font-size="12" lengthAdjust="spacing" textLength="50" x="509.5" y="244.9512">Traveler</text><text fill="#000000" font-family="sans-serif" font-size="12" font-weight="bold" lengthAdjust="spacing" textLength="47" x="563.5" y="244.9512">AddOn</text><text fill="#000000" font-family="sans-serif" font-size="12" lengthAdjust="spacing" textLength="37" x="614.5" y="244.9512">image</text><line style="stroke:#181818;stroke-width:1.5;" x1="489.5" x2="499.5" y1="296.75" y2="296.75"/><rect fill="#F1F1F1" height="47.9375" style="stroke:#181818;stroke-width:1.5;" width="185" x="499.5" y="272.7813"/><text fill="#000000" font-family="sans-serif" font-size="12" font-weight="bold" lengthAdjust="spacing" textLength="105" x="509.5" y="293.9199">install_dir_volt</text><text fill="#000000" font-family="sans-serif" font-size="12" lengthAdjust="spacing" textLength="73" x="509.5" y="307.8887">Domino Volt</text><text fill="#000000" font-family="sans-serif" font-size="12" font-weight="bold" lengthAdjust="spacing" textLength="47" x="586.5" y="307.8887">AddOn</text><text fill="#000000" font-family="sans-serif" font-size="12" lengthAdjust="spacing" textLength="37" x="637.5" y="307.8887">image</text><line style="stroke:#181818;stroke-width:1.5;" x1="489.5" x2="489.5" y1="131.9063" y2="296.75"/><line style="stroke:#181818;stroke-width:1.5;" x1="769.5" x2="769.5" y1="63.9688" y2="83.9688"/><rect fill="#F1F1F1" height="61.9063" style="stroke:#181818;stroke-width:1.5;" width="130" x="704.5" y="83.9688"/><text fill="#000000" font-family="sans-serif" font-size="12" font-weight="bold" lengthAdjust="spacing" textLength="67" x="714.5" y="105.1074">software</text><text fill="#000000" font-family="sans-serif" font-size="12" lengthAdjust="spacing" textLength="72" x="714.5" y="119.0762">Inventory of</text><text fill="#000000" font-family="sans-serif" font-size="12" lengthAdjust="spacing" textLength="110" x="714.5" y="133.0449">available software</text><line style="stroke:#181818;stroke-width:1.5;" x1="931.5" x2="931.5" y1="63.9688" y2="83.9688"/><rect fill="#F1F1F1" height="61.9063" style="stroke:#181818;stroke-width:1.5;" width="154" x="854.5" y="83.9688"/><text fill="#000000" font-family="sans-serif" font-size="12" font-weight="bold" lengthAdjust="spacing" textLength="34" x="864.5" y="105.1074">docs</text><text fill="#000000" font-family="sans-serif" font-size="12" lengthAdjust="spacing" textLength="134" x="864.5" y="119.0762">Project documentation</text><text fill="#000000" font-family="sans-serif" font-size="12" lengthAdjust="spacing" textLength="121" x="864.5" y="133.0449">in GitHub markdown</text><line style="stroke:#181818;stroke-width:1.5;" x1="1162.5" x2="1162.5" y1="63.9688" y2="83.9688"/><rect fill="#F1F1F1" height="47.9375" style="stroke:#181818;stroke-width:1.5;" width="145" x="1090" y="83.9688"/><text fill="#000000" font-family="sans-serif" font-size="12" font-weight="bold" lengthAdjust="spacing" textLength="22" x="1100" y="105.1074">lab</text><text fill="#000000" font-family="sans-serif" font-size="12" lengthAdjust="spacing" textLength="125" x="1100" y="119.0762">Tutorials for practise</text><line style="stroke:#181818;stroke-width:1.5;" x1="1152.5" x2="1162.5" y1="170.875" y2="170.875"/><rect fill="#F1F1F1" height="47.9375" style="stroke:#181818;stroke-width:1.5;" width="124" x="1028.5" y="146.9063"/><text fill="#000000" font-family="sans-serif" font-size="12" font-weight="bold" lengthAdjust="spacing" textLength="42" x="1038.5" y="168.0449">setup</text><text fill="#000000" font-family="sans-serif" font-size="12" lengthAdjust="spacing" textLength="104" x="1038.5" y="182.0137">Lab install scripts</text><line style="stroke:#181818;stroke-width:1.5;" x1="1162.5" x2="1172.5" y1="170.875" y2="170.875"/><rect fill="#F1F1F1" height="47.9375" style="stroke:#181818;stroke-width:1.5;" width="128" x="1172.5" y="146.9063"/><text fill="#000000" font-family="sans-serif" font-size="12" font-weight="bold" lengthAdjust="spacing" textLength="50" x="1182.5" y="168.0449">docker</text><text fill="#000000" font-family="sans-serif" font-size="12" lengthAdjust="spacing" textLength="108" x="1182.5" y="182.0137">Docker workshop</text><line style="stroke:#181818;stroke-width:1.5;" x1="1162.5" x2="1172.5" y1="233.8125" y2="233.8125"/><rect fill="#F1F1F1" height="47.9375" style="stroke:#181818;stroke-width:1.5;" width="104" x="1172.5" y="209.8438"/><text fill="#000000" font-family="sans-serif" font-size="12" font-weight="bold" lengthAdjust="spacing" textLength="84" x="1182.5" y="230.9824">kubernetes</text><text fill="#000000" font-family="sans-serif" font-size="12" lengthAdjust="spacing" textLength="80" x="1182.5" y="244.9512">Kubernes lab</text><line style="stroke:#181818;stroke-width:1.5;" x1="1162.5" x2="1162.5" y1="131.9063" y2="233.8125"/><line style="stroke:#181818;stroke-width:1.5;" x1="1394" x2="1394" y1="63.9688" y2="83.9688"/><rect fill="#F1F1F1" height="61.9063" style="stroke:#181818;stroke-width:1.5;" width="147" x="1320.5" y="83.9688"/><text fill="#000000" font-family="sans-serif" font-size="12" font-weight="bold" lengthAdjust="spacing" textLength="68" x="1330.5" y="105.1074">examples</text><text fill="#000000" font-family="sans-serif" font-size="12" lengthAdjust="spacing" textLength="127" x="1330.5" y="119.0762">Sample configrations</text><text fill="#000000" font-family="sans-serif" font-size="12" lengthAdjust="spacing" textLength="100" x="1330.5" y="133.0449">to get you going</text><line style="stroke:#181818;stroke-width:1.5;" x1="73.5" x2="1394" y1="63.9688" y2="63.9688"/><rect fill="#F1F1F1" height="33.9688" style="stroke:#181818;stroke-width:1.5;" width="261" x="603.25" y="10"/><text fill="#000000" font-family="sans-serif" font-size="12" font-weight="bold" lengthAdjust="spacing" textLength="241" x="613.25" y="31.1387">Domino Docker Container Project</text><line style="stroke:#181818;stroke-width:1.5;" x1="733.75" x2="733.75" y1="43.9688" y2="63.9688"/><!--MD5=[8f627e116753ecf43b18f94090c96b1f]
@startwbs ProjectTree
* **Domino Docker Container Project**
** <&globe> **Root** directory\nMain entry scripts
*** **build.sh**\nmain build script
*** **build.cfg**\ntemplate for build configration
** **dockerfiles**\nindiivdual docker files per product
***< **install_dir_common**\nCode used by all flavours
*** **install_dir_domino**\nDomino **Base** image
*** **install_dir_traveler**\nTraveler **AddOn** image
*** **install_dir_volt**\nDomino Volt **AddOn** image
** **software**\nInventory of\navailable software
** **docs**\nProject documentation\nin GitHub markdown
** **lab**\nTutorials for practise
***< **setup**\nLab install scripts
*** **docker**\nDocker workshop
*** **kubernetes**\nKubernes lab
** **examples**\nSample configrations\nto get you going
@endwbs

PlantUML version 1.2022.2beta9(Unknown compile time)
(GPL source distribution)
Java Runtime: Java(TM) SE Runtime Environment
JVM: Java HotSpot(TM) 64-Bit Server VM
Default Encoding: UTF-8
Language: en
Country: US
--></g></svg>