<svg xmlns="http://www.w3.org/2000/svg" xmlns:xlink="http://www.w3.org/1999/xlink" contentStyleType="text/css" data-diagram-type="STATE" height="782px" preserveAspectRatio="none" style="width:963px;height:782px;background:#FFFFFF;" version="1.1" viewBox="0 0 963 782" width="963px" zoomAndPan="magnify"><defs/><g><!--cluster ComRepo--><g class="cluster" data-entity="ComRepo" data-source-line="5" data-uid="ent0005" id="cluster_ComRepo"><path d="M586.5,120 L814.5,120 A12.5,12.5 0 0 1 827,132.5 L827,141.2969 L574,141.2969 L574,132.5 A12.5,12.5 0 0 1 586.5,120" fill="#F1F1F1"/><rect fill="none" height="249.53" rx="12.5" ry="12.5" style="stroke:#181818;stroke-width:0.5;" width="253" x="574" y="120"/><line style="stroke:#181818;stroke-width:0.5;" x1="574" x2="827" y1="141.2969" y2="141.2969"/><text fill="#000000" font-family="sans-serif" font-size="14" font-weight="bold" lengthAdjust="spacing" textLength="176.0049" x="612.4976" y="136.9951">Community repository</text></g><!--cluster CustomerEnv--><g class="cluster" data-entity="CustomerEnv" data-source-line="13" data-uid="ent0008" id="cluster_CustomerEnv"><path d="M602.5,418.53 L858.5,418.53 A12.5,12.5 0 0 1 871,431.03 L871,439.8269 L590,439.8269 L590,431.03 A12.5,12.5 0 0 1 602.5,418.53" fill="#F1F1F1"/><rect fill="none" height="228.4" rx="12.5" ry="12.5" style="stroke:#181818;stroke-width:0.5;" width="281" x="590" y="418.53"/><line style="stroke:#181818;stroke-width:0.5;" x1="590" x2="871" y1="439.8269" y2="439.8269"/><text fill="#000000" font-family="sans-serif" font-size="14" font-weight="bold" lengthAdjust="spacing" textLength="181.3643" x="639.8179" y="435.5251">Customer environment</text></g><!--cluster HCLEnv--><g class="cluster" data-entity="HCLEnv" data-source-line="21" data-uid="ent0012" id="cluster_HCLEnv"><path d="M19.5,268.26 L537.5,268.26 A12.5,12.5 0 0 1 550,280.76 L550,289.5569 L7,289.5569 L7,280.76 A12.5,12.5 0 0 1 19.5,268.26" fill="#F1F1F1"/><rect fill="none" height="507.8" rx="12.5" ry="12.5" style="stroke:#181818;stroke-width:0.5;" width="543" x="7" y="268.26"/><line style="stroke:#181818;stroke-width:0.5;" x1="7" x2="550" y1="289.5569" y2="289.5569"/><text fill="#000000" font-family="sans-serif" font-size="14" font-weight="bold" lengthAdjust="spacing" textLength="136.4043" x="210.2979" y="285.2551">HCL environment</text></g><!--cluster HclRepo--><g class="cluster" data-entity="HclRepo" data-source-line="23" data-uid="ent0013" id="cluster_HclRepo"><path d="M54.5,418.66 L272.5,418.66 A12.5,12.5 0 0 1 285,431.16 L285,439.9569 L42,439.9569 L42,431.16 A12.5,12.5 0 0 1 54.5,418.66" fill="#F1F1F1"/><rect fill="none" height="228.4" rx="12.5" ry="12.5" style="stroke:#181818;stroke-width:0.5;" width="243" x="42" y="418.66"/><line style="stroke:#181818;stroke-width:0.5;" x1="42" x2="285" y1="439.9569" y2="439.9569"/><text fill="#000000" font-family="sans-serif" font-size="14" font-weight="bold" lengthAdjust="spacing" textLength="117.2979" x="104.8511" y="435.6551">HCL repository</text></g><g id="ComRepo.ComDevRepo"><rect fill="#F1F1F1" height="50.2656" rx="12.5" ry="12.5" style="stroke:#181818;stroke-width:0.5;" width="154.4492" x="589.78" y="155"/><line style="stroke:#181818;stroke-width:0.5;" x1="589.78" x2="744.2292" y1="181.2969" y2="181.2969"/><text fill="#000000" font-family="sans-serif" font-size="14" font-weight="bold" lengthAdjust="spacing" textLength="64.1758" x="634.9167" y="172.9951">Develop</text><text fill="#000000" font-family="sans-serif" font-size="12" lengthAdjust="spacing" textLength="134.4492" x="594.78" y="197.4355">Active develop branch</text></g><g id="ComRepo.ComMainRepo"><rect fill="#F1F1F1" height="50.2656" rx="12.5" ry="12.5" style="stroke:#181818;stroke-width:0.5;" width="137.334" x="590.33" y="303.26"/><line style="stroke:#181818;stroke-width:0.5;" x1="590.33" x2="727.664" y1="329.5569" y2="329.5569"/><text fill="#000000" font-family="sans-serif" font-size="14" font-weight="bold" lengthAdjust="spacing" textLength="38.1445" x="639.9247" y="321.2551">Main</text><text fill="#000000" font-family="sans-serif" font-size="12" lengthAdjust="spacing" textLength="117.334" x="595.33" y="345.6955">Stable main branch</text></g><g id="CustomerEnv.LocalRepo"><rect fill="#F1F1F1" height="50" rx="12.5" ry="12.5" style="stroke:#181818;stroke-width:0.5;" width="105.873" x="606.06" y="453.66"/><line style="stroke:#181818;stroke-width:0.5;" x1="606.06" x2="711.933" y1="479.9569" y2="479.9569"/><text fill="#000000" font-family="sans-serif" font-size="14" font-weight="bold" lengthAdjust="spacing" textLength="85.873" x="616.06" y="471.6551">Local Repo</text></g><g id="CustomerEnv.HclWebKit"><rect fill="#F1F1F1" height="50.2656" rx="12.5" ry="12.5" style="stroke:#181818;stroke-width:0.5;" width="108.834" x="746.58" y="453.53"/><line style="stroke:#181818;stroke-width:0.5;" x1="746.58" x2="855.414" y1="479.8269" y2="479.8269"/><text fill="#000000" font-family="sans-serif" font-size="14" lengthAdjust="spacing" textLength="82.4551" x="759.7695" y="471.5251">HCL WebKit</text><text fill="#000000" font-family="sans-serif" font-size="12" lengthAdjust="spacing" textLength="88.834" x="751.58" y="495.9655">MHS download</text></g><g id="CustomerEnv.ComImage"><rect fill="#F1F1F1" height="50" rx="12.5" ry="12.5" style="stroke:#181818;stroke-width:0.5;" width="162.8438" x="623.58" y="580.93"/><line style="stroke:#181818;stroke-width:0.5;" x1="623.58" x2="786.4238" y1="607.2269" y2="607.2269"/><text fill="#000000" font-family="sans-serif" font-size="14" font-weight="bold" lengthAdjust="spacing" textLength="142.8438" x="633.58" y="598.9251">Community image</text></g><g id="HCLEnv.HclPull"><rect fill="#F1F1F1" height="50.2656" rx="12.5" ry="12.5" style="stroke:#181818;stroke-width:0.5;" width="151.1543" x="23.42" y="303.26"/><line style="stroke:#181818;stroke-width:0.5;" x1="23.42" x2="174.5743" y1="329.5569" y2="329.5569"/><text fill="#000000" font-family="sans-serif" font-size="14" font-weight="bold" lengthAdjust="spacing" textLength="131.1543" x="33.42" y="321.2551">HCL pull request</text><text fill="#000000" font-family="sans-serif" font-size="12" lengthAdjust="spacing" textLength="120.4336" x="28.42" y="345.6955">e.g hcl-local change</text></g><g id="HCLEnv.HclImage"><rect fill="#F1F1F1" height="50" rx="12.5" ry="12.5" style="stroke:#181818;stroke-width:0.5;" width="198.7393" x="335.63" y="710.06"/><line style="stroke:#181818;stroke-width:0.5;" x1="335.63" x2="534.3693" y1="736.3569" y2="736.3569"/><text fill="#000000" font-family="sans-serif" font-size="14" font-weight="bold" lengthAdjust="spacing" textLength="178.7393" x="345.63" y="728.0551">HCL official HCL image</text></g><g id="HCLEnv.HclDailyWebKit"><rect fill="#F1F1F1" height="50" rx="12.5" ry="12.5" style="stroke:#181818;stroke-width:0.5;" width="140.4355" x="331.78" y="453.66"/><line style="stroke:#181818;stroke-width:0.5;" x1="331.78" x2="472.2155" y1="479.9569" y2="479.9569"/><text fill="#000000" font-family="sans-serif" font-size="14" lengthAdjust="spacing" textLength="120.4355" x="341.78" y="471.6551">HCL WebKit daily</text></g><g id="HCLEnv.HCLDailyImage"><rect fill="#F1F1F1" height="50" rx="12.5" ry="12.5" style="stroke:#181818;stroke-width:0.5;" width="147.2031" x="386.4" y="580.93"/><line style="stroke:#181818;stroke-width:0.5;" x1="386.4" x2="533.6031" y1="607.2269" y2="607.2269"/><text fill="#000000" font-family="sans-serif" font-size="14" font-weight="bold" lengthAdjust="spacing" textLength="127.2031" x="396.4" y="598.9251">HCL daily image</text></g><g id="HCLEnv.HclWebKitGold"><rect fill="#F1F1F1" height="50" rx="12.5" ry="12.5" style="stroke:#181818;stroke-width:0.5;" width="145.5693" x="23.22" y="710.06"/><line style="stroke:#181818;stroke-width:0.5;" x1="23.22" x2="168.7893" y1="736.3569" y2="736.3569"/><text fill="#000000" font-family="sans-serif" font-size="14" lengthAdjust="spacing" textLength="125.5693" x="33.22" y="728.0551">HCL WebKit(Gold)</text></g><g id="HCLEnv.HclRepo.HclDevRepo"><rect fill="#F1F1F1" height="50" rx="12.5" ry="12.5" style="stroke:#181818;stroke-width:0.5;" width="152.2549" x="101.87" y="453.66"/><line style="stroke:#181818;stroke-width:0.5;" x1="101.87" x2="254.1249" y1="479.9569" y2="479.9569"/><text fill="#000000" font-family="sans-serif" font-size="14" font-weight="bold" lengthAdjust="spacing" textLength="132.2549" x="111.87" y="471.6551">community-main</text></g><g id="HCLEnv.HclRepo.HclMainRepo"><rect fill="#F1F1F1" height="50.2656" rx="12.5" ry="12.5" style="stroke:#181818;stroke-width:0.5;" width="166.1738" x="57.91" y="580.79"/><line style="stroke:#181818;stroke-width:0.5;" x1="57.91" x2="224.0838" y1="607.0869" y2="607.0869"/><text fill="#000000" font-family="sans-serif" font-size="14" font-weight="bold" lengthAdjust="spacing" textLength="38.1445" x="121.9246" y="598.7851">Main</text><text fill="#000000" font-family="sans-serif" font-size="12" lengthAdjust="spacing" textLength="146.1738" x="62.91" y="623.2255">+ hcl-local / jenkins files</text></g><g id="ComSubmit"><rect fill="#F1F1F1" height="50" rx="12.5" ry="12.5" style="stroke:#181818;stroke-width:0.5;" width="183.9736" x="335.01" y="7"/><line style="stroke:#181818;stroke-width:0.5;" x1="335.01" x2="518.9836" y1="33.2969" y2="33.2969"/><text fill="#000000" font-family="sans-serif" font-size="14" lengthAdjust="spacing" textLength="163.9736" x="345.01" y="24.9951">Community submission</text></g><g id="HclSubmit"><rect fill="#F1F1F1" height="50" rx="12.5" ry="12.5" style="stroke:#181818;stroke-width:0.5;" width="131.0498" x="601.48" y="7"/><line style="stroke:#181818;stroke-width:0.5;" x1="601.48" x2="732.5298" y1="33.2969" y2="33.2969"/><text fill="#000000" font-family="sans-serif" font-size="14" lengthAdjust="spacing" textLength="111.0498" x="611.48" y="24.9951">HCL submission</text></g><g id="StartScript"><rect fill="#F1F1F1" height="50" rx="12.5" ry="12.5" style="stroke:#181818;stroke-width:0.5;" width="170.9033" x="767.55" y="7"/><line style="stroke:#181818;stroke-width:0.5;" x1="767.55" x2="938.4533" y1="33.2969" y2="33.2969"/><text fill="#000000" font-family="sans-serif" font-size="14" lengthAdjust="spacing" textLength="150.9033" x="777.55" y="24.9951">Nash!Com Start Script</text></g><!--link StartScript to ComDevRepo--><g class="link" data-entity-1="StartScript" data-entity-2="ComDevRepo" data-source-line="39" data-uid="lnk2" id="link_StartScript_ComDevRepo"><path d="M832.65,57.49 C820.02,71.9 803.01,89.99 786,104 C762.89,123.02 739.8225,137.9994 716.6525,151.6194" fill="none" id="StartScript-to-ComDevRepo" style="stroke:#181818;stroke-width:1;"/><polygon fill="#181818" points="711.48,154.66,721.2658,153.5475,715.7904,152.1262,717.2117,146.6508,711.48,154.66" style="stroke:#181818;stroke-width:1;"/><text fill="#000000" font-family="sans-serif" font-size="13" lengthAdjust="spacing" textLength="150.5283" x="805" y="100.0669">Nash!Com contribution</text></g><!--link ComSubmit to ComDevRepo--><g class="link" data-entity-1="ComSubmit" data-entity-2="ComDevRepo" data-source-line="41" data-uid="lnk3" id="link_ComSubmit_ComDevRepo"><path d="M432.71,57.28 C437.44,72.53 445.61,91.6 459,104 C494.85,137.19 540.6215,154.5255 583.4615,164.9955" fill="none" id="ComSubmit-to-ComDevRepo" style="stroke:#181818;stroke-width:1;"/><polygon fill="#181818" points="589.29,166.42,581.497,160.3977,584.433,165.2329,579.5977,168.1689,589.29,166.42" style="stroke:#181818;stroke-width:1;"/><text fill="#000000" font-family="sans-serif" font-size="13" lengthAdjust="spacing" textLength="198.0151" x="460" y="100.0669">Approved by community team</text></g><!--link ComDevRepo to ComMainRepo--><g class="link" data-entity-1="ComDevRepo" data-entity-2="ComMainRepo" data-source-line="42" data-uid="lnk4" id="link_ComDevRepo_ComMainRepo"><path d="M665.66,205.61 C664.18,232.61 662.148,269.809 660.668,296.839" fill="none" id="ComDevRepo-to-ComMainRepo" style="stroke:#181818;stroke-width:1;"/><polygon fill="#181818" points="660.34,302.83,664.8261,294.0621,660.6134,297.8375,656.838,293.6248,660.34,302.83" style="stroke:#181818;stroke-width:1;"/><text fill="#000000" font-family="sans-serif" font-size="13" lengthAdjust="spacing" textLength="184.4375" x="665" y="248.3269">Merged by community team</text></g><!--link ComMainRepo to HclDevRepo--><g class="link" data-entity-1="ComMainRepo" data-entity-2="HclDevRepo" data-source-line="44" data-uid="lnk5" id="link_ComMainRepo_HclDevRepo"><path d="M611.85,353.96 C593.07,362.74 570.97,371.86 550,377.53 C534.24,381.79 273,404.09 258,410.53 C235.51,420.18 218.7098,434.0547 203.8698,449.0547" fill="none" id="ComMainRepo-to-HclDevRepo" style="stroke:#181818;stroke-width:1;"/><polygon fill="#181818" points="199.65,453.32,208.8233,449.7352,203.1665,449.7656,203.1362,444.1088,199.65,453.32" style="stroke:#181818;stroke-width:1;"/><text fill="#000000" font-family="sans-serif" font-size="13" lengthAdjust="spacing" textLength="97.8872" x="477" y="398.5969">Synced by HCL</text></g><!--link HclDevRepo to HclMainRepo--><g class="link" data-entity-1="HclDevRepo" data-entity-2="HclMainRepo" data-source-line="45" data-uid="lnk6" id="link_HclDevRepo_HclMainRepo"><path d="M121.82,504.13 C110.29,511.88 99.65,521.68 93,533.79 C84.11,549.99 90.8153,562.9898 104.5053,576.4098" fill="none" id="HclDevRepo-to-HclMainRepo" style="stroke:#181818;stroke-width:1;"/><polygon fill="#181818" points="108.79,580.61,105.1631,571.4533,105.2194,577.1099,99.5629,577.1662,108.79,580.61" style="stroke:#181818;stroke-width:1;"/><text fill="#000000" font-family="sans-serif" font-size="13" lengthAdjust="spacing" textLength="174.3638" x="94" y="546.8569">Merged by CFIUS approver</text></g><!--link HclSubmit to ComDevRepo--><g class="link" data-entity-1="HclSubmit" data-entity-2="ComDevRepo" data-source-line="46" data-uid="lnk7" id="link_HclSubmit_ComDevRepo"><path d="M667,57.46 C667,84.43 667,121.58 667,148.59" fill="none" id="HclSubmit-to-ComDevRepo" style="stroke:#181818;stroke-width:1;"/><polygon fill="#181818" points="667,154.59,671,145.59,667,149.59,663,145.59,667,154.59" style="stroke:#181818;stroke-width:1;"/><text fill="#000000" font-family="sans-serif" font-size="13" lengthAdjust="spacing" textLength="109.0146" x="668" y="100.0669">HCL contribution</text></g><!--link HclMainRepo to HclImage--><g class="link" data-entity-1="HclMainRepo" data-entity-2="HclImage" data-source-line="47" data-uid="lnk8" id="link_HclMainRepo_HclImage"><path d="M182.42,631.4 C196.65,639.39 212.82,648 228,655.06 C272.13,675.56 317.5441,693.0593 357.9141,707.5793" fill="none" id="HclMainRepo-to-HclImage" style="stroke:#181818;stroke-width:1;"/><polygon fill="#181818" points="363.56,709.61,356.4449,702.8,358.8551,707.9178,353.7373,710.3279,363.56,709.61" style="stroke:#181818;stroke-width:1;"/><text fill="#000000" font-family="sans-serif" font-size="13" lengthAdjust="spacing" textLength="126.8579" x="285" y="676.1269">Build by build room</text></g><!--link HclWebKit to ComImage--><g class="link" data-entity-1="HclWebKit" data-entity-2="ComImage" data-source-line="48" data-uid="lnk9" id="link_HclWebKit_ComImage"><path d="M782.26,504.11 C765.35,526.18 744.2399,553.7278 727.3399,575.7778" fill="none" id="HclWebKit-to-ComImage" style="stroke:#181818;stroke-width:1;"/><polygon fill="#181818" points="723.69,580.54,732.3396,575.83,726.7316,576.5715,725.9901,570.9635,723.69,580.54" style="stroke:#181818;stroke-width:1;"/><text fill="#000000" font-family="sans-serif" font-size="13" lengthAdjust="spacing" textLength="130.4443" x="760" y="546.8569">Used to build image</text></g><!--link HclMainRepo to HCLDailyImage--><g class="link" data-entity-1="HclMainRepo" data-entity-2="HCLDailyImage" data-source-line="50" data-uid="lnk10" id="link_HclMainRepo_HCLDailyImage"><path d="M224.4,605.93 C274.52,605.93 331.73,605.93 380.06,605.93" fill="none" id="HclMainRepo-to-HCLDailyImage" style="stroke:#181818;stroke-width:1;"/><polygon fill="#181818" points="386.06,605.93,377.06,601.93,381.06,605.93,377.06,609.93,386.06,605.93" style="stroke:#181818;stroke-width:1;"/><text fill="#000000" font-family="sans-serif" font-size="13" lengthAdjust="spacing" textLength="126.8579" x="242.24" y="598.9969">Build by build room</text></g><!--link HclDailyWebKit to HCLDailyImage--><g class="link" data-entity-1="HclDailyWebKit" data-entity-2="HCLDailyImage" data-source-line="51" data-uid="lnk11" id="link_HclDailyWebKit_HCLDailyImage"><path d="M413.32,504.11 C423.54,526.18 435.9789,553.0454 446.1889,575.0954" fill="none" id="HclDailyWebKit-to-HCLDailyImage" style="stroke:#181818;stroke-width:1;"/><polygon fill="#181818" points="448.71,580.54,448.5581,570.6923,446.6091,576.0028,441.2986,574.0538,448.71,580.54" style="stroke:#181818;stroke-width:1;"/><text fill="#000000" font-family="sans-serif" font-size="13" lengthAdjust="spacing" textLength="130.4443" x="436" y="546.8569">Used to build image</text></g><!--link HclWebKitGold to HclImage--><g class="link" data-entity-1="HclWebKitGold" data-entity-2="HclImage" data-source-line="52" data-uid="lnk12" id="link_HclWebKitGold_HclImage"><path d="M169.14,735.06 C217.7,735.06 276.07,735.06 329.3,735.06" fill="none" id="HclWebKitGold-to-HclImage" style="stroke:#181818;stroke-width:1;"/><polygon fill="#181818" points="335.3,735.06,326.3,731.06,330.3,735.06,326.3,739.06,335.3,735.06" style="stroke:#181818;stroke-width:1;"/><text fill="#000000" font-family="sans-serif" font-size="13" lengthAdjust="spacing" textLength="130.4443" x="187.21" y="728.1269">Used to build image</text></g><!--link ComMainRepo to LocalRepo--><g class="link" data-entity-1="ComMainRepo" data-entity-2="LocalRepo" data-source-line="54" data-uid="lnk13" id="link_ComMainRepo_LocalRepo"><path d="M659,353.88 C659,381.51 659,420.19 659,447.63" fill="none" id="ComMainRepo-to-LocalRepo" style="stroke:#181818;stroke-width:1;"/><polygon fill="#181818" points="659,453.63,663,444.63,659,448.63,655,444.63,659,453.63" style="stroke:#181818;stroke-width:1;"/><text fill="#000000" font-family="sans-serif" font-size="13" lengthAdjust="spacing" textLength="176.5918" x="660" y="398.5969">Cloned/forked by customer</text></g><!--link LocalRepo to ComImage--><g class="link" data-entity-1="LocalRepo" data-entity-2="ComImage" data-source-line="55" data-uid="lnk14" id="link_LocalRepo_ComImage"><path d="M662.19,503.91 C664.5,517.91 668.25,535.7 674,550.79 C677.89,561.02 680.4664,566.447 685.8764,575.517" fill="none" id="LocalRepo-to-ComImage" style="stroke:#181818;stroke-width:1;"/><polygon fill="#181818" points="688.95,580.67,687.7749,570.8915,686.3887,576.3759,680.9043,574.9896,688.95,580.67" style="stroke:#181818;stroke-width:1;"/></g><!--link HclPull to HclMainRepo--><g class="link" data-entity-1="HclPull" data-entity-2="HclMainRepo" data-source-line="56" data-uid="lnk15" id="link_HclPull_HclMainRepo"><path d="M89.86,353.92 C75.67,396.15 52.83,484.45 82,550.79 C86.98,562.12 91.1644,568.1027 100.3244,576.3227" fill="none" id="HclPull-to-HclMainRepo" style="stroke:#181818;stroke-width:1;"/><polygon fill="#181818" points="104.79,580.33,100.7632,571.342,101.0687,576.9906,95.4201,577.2961,104.79,580.33" style="stroke:#181818;stroke-width:1;"/></g><!--SRC=[ZPJ9Rjim48RlV8ffJgqBDtST0gJgug1sKLG8UgOascP3aIf9kJ22l7k7bBZ8Se3UDADl_jb86aijWvjITTqWkJs36UgE6yELl05g07zKpcE96SbDkRraDesOCz-fERx1IAWirHQgHlFUUjGxHfi4UhLAsJNhbU5MwVDg5VB_H1yy4u38Vs8d9bIV47GuAcTsbCi4ECiJY2I-WFl6yXE3TXI4MbFP74ScX1Ikw5emwD0HY9Uy-i5OrJ4DJ9wuLh9ZqeRCqw_FyZJlOAiQAi39JwHtp7jma_x5wc_SXYcF5XBnku3Tfe9M_PL2qJRFa6RAEtfWQHGFploFIUKjkbAMtQ5tR2nNS-XYYrXlt6B6Dg76TPTgG3QjytgPYCGo7PFP1Ro7OoFMmW_u5dup-SIbWJqNp23yiYYs7uJ0YlyCpDYa_yDvduEwimfW7mwPTdEaqWzoAQdsUzvmP9oHZn-bBiQVbWmjvU8SH-2CkE-PkkVcikNMywzgl_sgHFjkVeoS2vSC9BkJi5xVPVS32eXNkL7IQbuF5cyz8V5PM4RSzxrM9zP2VOQuOB2CTYJZfh2mDepRCNsu6aLopiMb4u9XrLasOnYsIx9V4tarG_dbuR42EbQgINp0bjsu6SvQpoMd57xio7uSkF3ojV_GIdKaZZj81_ZHO2bMJQpV9fcBtytt-dg2xAoC9Ls4NKirEmOmx-DgQPTBY0yM1fH2ITRUxfL-cZOulNiaKNdx95omzSMI_W40]--></g></svg>